<?xml version="1.0" encoding="UTF-8"?>
<svg id="Layer_1" data-name="Layer 1" xmlns="http://www.w3.org/2000/svg" version="1.1" viewBox="0 0 143.8 37">
  <defs>
    <style>
      .cls-1 {
        fill: #000;
        stroke-width: 0px;
      }
    </style>
  </defs>
  <path class="cls-1" d="M3.5,16.9c1.3-1.9,3-3.4,5-4.4,2.1-1.1,4.2-1.5,6.5-1.5,1.8,0,3.5.6,5.1,1.5.8.5,1.1,1.4.7,2.3l-1.6,3.6c-.6,1.4-2.7,1.4-3.3,0-.8-1.7-1.6-2.9-2.3-3.7-1.2-1.3-2.1-1.7-2.8-1.2-.8.5-1.2,1.5-1.5,3-.3,1.5-.2,3.2.1,5,.3,1.8,1,3.4,2,4.9,1,1.4,2.4,2.3,4.2,2.6.9.2,2,0,3.2-.2,1.7-.5,3,1.4,2,2.8,0,0,0,0,0,0-.9,1.2-2,2-3.3,2.6-1.3.6-2.5.8-3.7.8-2.3,0-4.3-.5-6.2-1.5-1.9-1-3.3-2.4-4.5-4.2-1.1-1.7-1.7-3.7-1.7-5.8,0-2.4.8-4.6,2.1-6.5Z"/>
  <path class="cls-1" d="M42.3,12.6c1.9,1.1,3.4,2.5,4.5,4.4,1.1,1.8,1.7,3.9,1.7,6.1s-.6,4.3-1.7,6.1c-1.1,1.8-2.6,3.3-4.5,4.4-1.9,1.1-4,1.7-6.3,1.7s-4.4-.6-6.3-1.7c-1.9-1.1-3.4-2.5-4.5-4.4-1.1-1.8-1.7-3.9-1.7-6.1s.6-4.2,1.7-6.1c1.1-1.8,2.6-3.3,4.5-4.4,1.9-1.1,4-1.6,6.3-1.6s4.4.6,6.3,1.6ZM32.4,13.1c-.8.1-1.3.7-1.6,1.7-.3,1-.4,2.3-.2,3.8.2,1.6.6,3.2,1.2,5.1s1.5,3.5,2.4,5c.9,1.5,1.8,2.6,2.7,3.4,1,.8,1.8,1.2,2.6,1,.7-.1,1.3-.7,1.6-1.7.3-1,.4-2.2.2-3.8-.2-1.6-.6-3.3-1.2-5.1-.7-1.9-1.5-3.5-2.4-4.9-.9-1.4-1.8-2.6-2.7-3.4-.8-.7-1.6-1.1-2.3-1.1s-.2,0-.3,0Z"/>
  <path class="cls-1" d="M59.6,9.6c0,.9,0,1.6-.1,2.2,0,.5.4.9.9.9.5,0,1.1,0,1.6,0,.5,0,.9.4.9.8h0c0,.5-.4.8-.8.8h-1.8c-.4,0-.8.3-.8.7-.3,1.3-.4,2.9-.5,4.7-.1,2.1,0,4,.2,5.7.2,1.7.8,3,1.6,4,.5.6,1.2,1,2.1,1.1.6,0,1,.8.6,1.3-1.2,1.7-2.6,2.7-4.3,3-2.1.4-4.1-.2-6-1.8,0,0,0,0,0,0-1.1-1-1.7-2.4-1.9-3.9-.1-1.6-.1-3.2,0-4.8,0-.7.1-1.4.2-2,.2-2,.2-3.7,0-5-.1-1.1-.3-1.9-.7-2.5-.2-.2-.4-.4-.7-.4h-.5c-.5,0-.8-.4-.8-.8h0c0-.5.3-.9.7-.9.6-.1,1.6-.5,2.9-.9,1.9-.7,3.4-1.4,4.7-2.2.6-.4,1.2-.7,1.8-1,.6-.3,1.3.2,1.2.8,0,0,0,.1,0,.2,0,0,0,0,0,0Z"/>
  <path class="cls-1" d="M82.7,13.2c1.7,1.4,2.8,3.3,3.1,5.8,0,0,0,.2,0,.2,0,1.9-.4,3.3-1.3,4.4-.9,1.1-2.1,1.8-3.5,2.1-1.5.3-3,.2-4.5-.3-1.6-.5-2.9-1.3-4.1-2.6-1.1-1.2-1.9-2.7-2.3-4.5,0-.2-.3-.3-.4-.2h0c0,0-.1.2-.1.3.1,1.8.7,3.5,1.6,5.1,1,1.6,2.2,3,3.8,4,1.6,1,3.2,1.6,5.1,1.7.7,0,1.3,0,2-.2,1.7-.4,3.1,1.5,2,2.9,0,0,0,0,0,.1-.9,1.2-2,2-3.3,2.5-1.3.5-2.6.7-3.9.7-1.9,0-3.8-.4-5.6-1.1-1.8-.7-3.4-1.9-4.6-3.6-1.3-1.7-1.9-3.9-2.1-6.8-.2-2,.1-3.7.9-5.4.8-1.7,1.8-3.1,3.2-4.2,1.4-1.2,2.9-2,4.6-2.5,1.1-.3,2.1-.5,3.2-.4,2.4,0,4.5.7,6.2,2.1Z"/>
  <path class="cls-1" d="M105.4,11.9s0,0,0,0c1.8,1.2,2.3,3.6,1.2,5.4l-.7,1.2c-.9,1.5-3,1.6-4.1.3h0c-1.2-1.5-2.4-2.2-3.6-2-1.2.2-1.8,1.2-2,2.9-.2,1.7-.2,3.7,0,5.8.2,2.1.5,4.1.8,5.9h0c.3,1.8-1.1,3.4-2.9,3.4h-3.3c-1.8,0-3.2-1.5-3-3.3,0-.6.1-1.4.2-2.1.3-2.6.4-5.4.2-8.3,0-1.3-.2-2.5-.3-3.6-.4-2.4,1.1-4.7,3.5-5.2l3.7-.8c.7-.2,1.2.7.8,1.2,0,0,0,0,0,0-.6.8-1.2,2-1.7,3.4-.4,1.3-.6,2.9-.4,4.7,0,.2.2.4.4.4h0c.2,0,.4-.2.4-.4,0-1.2.2-2.5.6-3.8.4-1.5,1.2-2.8,2.6-4,1.3-1.2,2.6-1.8,3.9-2,1.3-.1,2.5.2,3.7,1Z"/>
  <path class="cls-1" d="M113.3,11.3c-2.3.5-3.8,2.7-3.5,5,0,.5.1,1,.2,1.6.3,2.6.3,5.4.3,8.5,0,1.4-.1,2.7-.2,4-.2,2.6,1.9,4.8,4.5,4.8h.4c2.7,0,4.7-2.3,4.4-4.9-.3-2.6-.5-5-.6-7.3-.1-2.2-.1-4.5,0-7.1.1-2.9-2.5-5.1-5.4-4.5h0Z"/>
  <path class="cls-1" d="M126.2,18.2c.2-.1.4,0,.4.2.4,1.8,1.2,3.3,2.3,4.5,1.2,1.3,2.5,2.1,4.1,2.6s3.1.6,4.5.3c1.5-.3,2.6-1,3.5-2.1.9-1.1,1.3-2.5,1.3-4.4,0,0,0-.2,0-.2-.3-2.5-1.4-4.4-3.1-5.8-1.8-1.4-3.9-2.1-6.2-2.1-1.1,0-2.1.1-3.2.4-1.7.5-3.2,1.4-4.6,2.5-1.4,1.2-2.4,2.6-3.2,4.2-.8,1.6-1,3.4-.9,5.4.2,2.8.9,5.1,2.1,6.8,1.2,1.7,2.8,2.9,4.6,3.6,1.8.7,3.7,1.1,5.6,1.1,1.3,0,2.6-.2,3.9-.7,1.3-.5,2.4-1.3,3.3-2.5,0,0,0,0,0-.1,1.1-1.4-.3-3.3-2-2.9-.7.1-1.3.2-2,.2-1.9,0-3.5-.6-5.1-1.7-1.6-1-2.8-2.4-3.8-4-.9-1.6-1.5-3.3-1.6-5.1,0-.1,0-.2.1-.3ZM128.3,15.6c0-1.1.4-1.8,1.2-2.2.4-.2.9-.2,1.3,0,1.3.5,2.5,1.7,3.4,3.6.6,1.3.9,2.6.8,3.7,0,1.1-.4,1.8-1.2,2.2-.7.3-1.6.1-2.4-.6-.9-.7-1.6-1.7-2.3-3-.6-1.3-.9-2.6-.8-3.7Z"/>
  <ellipse class="cls-1" cx="113.9" cy="5.6" rx="3.8" ry="3.8"/>
</svg>